<?xml version="1.0" encoding="UTF-8"?>
<svg xmlns="http://www.w3.org/2000/svg" viewBox="0 0 127.18 144.49">
  <defs>
    <style>
      .cls-1, .cls-2 {
        stroke-width: 0px;
      }

      .cls-2 {
        fill: #fff;
      }
    </style>
  </defs>
  <g id="tail">
    <path class="cls-1" d="m72.61,114.33c-7.51,6.89-7.99,18.71-3.76,24.62,3.82,5.32,10.01,5.99,14,5.33,9.93-1.63,15.52-10.9,10.34-15.33-4.19-3.6-8.63,2.15-12.21,3.91-5.61,2.77-9.09-1.27-8.1-6.1.4-1.96,2.51-8.49,6.01-10.19"/>
  </g>
  <g id="legs">
    <path class="cls-1" d="m96.44,106.52c11.34,5.68,4.56,9.23-2.21,8.61"/>
    <path class="cls-1" d="m54.98,106.1c-10.87,10.07-2.61,11.68,4.58,8.71"/>
    <path class="cls-1" d="m91.04,93.86c14.33,3.76,7.81,9.07.07,9.84"/>
    <path class="cls-1" d="m59.53,119.26c-4.62,11.81,2.8,9.91,7.41,4.91"/>
  </g>
  <g id="body">
    <path class="cls-1" d="m55.12,89.02c.85,7.92-5.86,26.23,5.17,33.76,7.74,5.29,31.57-1.07,37.07-8.67,5.25-7.27-8.81-25.64-15.98-31.81"/>
  </g>
  <g id="ears">
    <path class="cls-1" d="m16.56,53.12s-7.93-34.4.37-39.26c6.82-3.99,28.71,15.38,28.71,15.38"/>
    <path class="cls-1" d="m91.23,34.48S82.05.39,72.44,0c-7.9-.32-18.11,27.07-18.11,27.07"/>
  </g>
  <g id="whiskers">
    <path class="cls-1" d="m1.34,87.08c5.69-3.41,12.45-5.43,19-6.25,1.14-.14,1.15-1.94,0-1.8-6.87.85-13.93,2.91-19.9,6.49-.99.6-.09,2.15.91,1.55h0Z"/>
    <path class="cls-1" d="m13.25,104.28c2.86-6.11,7.29-11.66,12.41-16,.89-.75-.39-2.02-1.27-1.27-5.22,4.42-9.77,10.14-12.69,16.36-.49,1.04,1.06,1.96,1.55.91h0Z"/>
    <path class="cls-1" d="m126.53,52.92c-6.92-.94-14.19-.12-20.87,1.8-1.11.32-.64,2.06.48,1.74,6.27-1.8,13.72-2.64,19.91-1.8,1.13.15,1.62-1.58.48-1.74h0Z"/>
    <path class="cls-1" d="m123.17,73.83c-5.2-4.64-11.66-8.13-18.3-10.17-1.11-.34-1.58,1.4-.48,1.74,6.32,1.95,12.55,5.29,17.51,9.71.86.77,2.14-.5,1.27-1.27h0Z"/>
  </g>
  <g id="head">
    <path class="cls-1" d="m106.42,48.66c6.93,20.8-10.82,40.89-36.59,49.48-25.77,8.59-50.84,5.87-57.77-14.93-6.93-20.8,6.9-51.8,32.66-60.39,25.77-8.59,54.76,5.04,61.7,25.84Z"/>
  </g>
  <g id="eyes-white">
    <path class="cls-2" d="m51.45,61.18c2.75,10.45-1.7,20.68-9.95,22.85-8.25,2.17-17.16-4.54-19.91-14.98-2.75-10.45,1.7-20.68,9.95-22.85,8.24-2.17,17.16,4.54,19.91,14.99Z"/>
    <path class="cls-2" d="m95.97,48.64c2.75,10.45-1.7,20.68-9.95,22.85-8.24,2.17-17.16-4.54-19.91-14.99-2.75-10.45,1.7-20.68,9.95-22.85,8.25-2.17,17.16,4.54,19.91,14.99Z"/>
  </g>
  <g id="eyes">
    <path class="cls-1" d="m84.97,50.18c2.03,6.84.27,13.39-3.92,14.63-4.19,1.24-9.23-3.29-11.26-10.13-2.03-6.84-.28-13.39,3.92-14.63,4.19-1.24,9.23,3.29,11.26,10.13Z"/>
    <path class="cls-2" d="m76.65,44.55c.46,2.08-.24,4-1.56,4.3-1.33.29-2.77-1.15-3.24-3.23-.46-2.08.24-4,1.56-4.3,1.33-.29,2.77,1.15,3.24,3.23Z"/>
    <path class="cls-1" d="m47.55,61.79c2.03,6.84.27,13.39-3.92,14.63-4.19,1.24-9.23-3.29-11.26-10.13-2.03-6.84-.27-13.39,3.92-14.63,4.19-1.25,9.23,3.29,11.26,10.13Z"/>
    <path class="cls-2" d="m39.23,56.16c.46,2.08-.24,4-1.56,4.29-1.33.3-2.78-1.15-3.24-3.23-.46-2.08.24-4,1.56-4.3,1.32-.29,2.77,1.15,3.24,3.23Z"/>
  </g>
</svg>