<?xml version="1.0" encoding="UTF-8"?>
<svg xmlns="http://www.w3.org/2000/svg" viewBox="0 0 125.93 131.24">
  <defs>
    <style>
      .cls-1, .cls-2 {
        stroke-width: 0px;
      }

      .cls-2 {
        fill: #fff;
      }
    </style>
  </defs>
  <g id="tail">
    <path class="cls-1" d="m84.55,125.72c-5.25,5.5-28.43,6.08-35.64,5.18-6.5-.81-10.04-5.95-11.37-9.76-3.3-9.51,2.18-18.84,8.54-16.41,5.16,1.97,2.23,8.62,2.38,12.6.25,6.25,9.27,7.95,13.95,6.39,3.83-1.27,14.29-2.11,15.37-5"/>
  </g>
  <g id="body">
    <path class="cls-1" d="m56.92,94.22c-3.44,5.27-11.04,21.4-.87,30.06,7.14,6.08,28.31,6.17,37.66-1.06,8.39-6.49-.31-26.13-14.16-31.77"/>
  </g>
  <g id="ears">
    <path class="cls-1" d="m17.12,53.99s-8.46-34.27-.24-39.26c6.76-4.1,28.94,14.93,28.94,14.93"/>
    <path class="cls-1" d="m91.49,34.18S81.78.24,72.16,0c-7.9-.2-17.68,27.35-17.68,27.35"/>
  </g>
  <g id="whiskers">
    <path class="cls-1" d="m1.32,92.81c5.65-3.66,12.39-5.9,19-6.96,1.14-.18.66-1.92-.48-1.74-6.74,1.08-13.67,3.4-19.43,7.14-.97.63-.07,2.19.91,1.55h0Z"/>
    <path class="cls-1" d="m13.84,109.6c2.64-6.2,6.87-11.92,11.83-16.43.86-.78-.42-2.05-1.27-1.27-5.06,4.6-9.42,10.47-12.11,16.79-.45,1.06,1.1,1.97,1.55.91h0Z"/>
    <path class="cls-1" d="m125.06,54.25c-6.84-.69-14.06.43-20.55,2.54-1.1.36-.63,2.1.48,1.74,6.37-2.07,13.36-3.15,20.07-2.48,1.15.12,1.14-1.68,0-1.8h0Z"/>
    <path class="cls-1" d="m122.67,75.31c-5.36-4.45-11.93-7.73-18.64-9.54-1.12-.3-1.6,1.43-.48,1.74,6.38,1.72,12.73,4.83,17.84,9.08.89.74,2.17-.53,1.27-1.27h0Z"/>
  </g>
  <g id="head">
    <path class="cls-1" d="m109.27,56.36c4.19,21.52-16.01,39.15-42.67,44.34-26.66,5.19-51.17-.75-55.36-22.27-4.19-21.52,13.52-50.47,40.18-55.67,26.66-5.19,53.65,12.07,57.84,33.59Z"/>
  </g>
  <g id="eyes-white">
    <path class="cls-2" d="m52.81,63.27c2.39,10.54-2.41,20.61-10.73,22.49-8.31,1.88-16.99-5.13-19.38-15.67-2.39-10.54,2.41-20.61,10.73-22.49,8.32-1.89,16.99,5.13,19.38,15.66Z"/>
    <path class="cls-2" d="m97.74,52.27c2.39,10.54-2.41,20.61-10.73,22.49-8.31,1.89-16.99-5.13-19.38-15.67-2.39-10.54,2.41-20.61,10.73-22.49,8.31-1.89,16.99,5.13,19.38,15.67Z"/>
  </g>
  <g id="eyes">
    <path class="cls-1" d="m94.25,45.99c1.79,6.9-.19,13.39-4.42,14.49-4.23,1.1-9.11-3.61-10.91-10.52-1.79-6.91.19-13.39,4.42-14.49,4.23-1.1,9.11,3.61,10.9,10.52Z"/>
    <path class="cls-2" d="m86.13,40.08c.39,2.09-.37,3.99-1.71,4.24-1.33.25-2.73-1.24-3.12-3.34-.39-2.09.38-3.99,1.71-4.24s2.73,1.25,3.12,3.34Z"/>
    <path class="cls-1" d="m48.72,58.05c1.79,6.9-.19,13.39-4.42,14.49-4.23,1.1-9.11-3.61-10.91-10.52-1.79-6.91.19-13.39,4.42-14.49,4.23-1.1,9.11,3.61,10.9,10.52Z"/>
    <path class="cls-2" d="m40.6,52.13c.39,2.09-.37,3.99-1.71,4.24-1.33.25-2.73-1.24-3.12-3.34-.39-2.09.38-3.99,1.71-4.24,1.33-.25,2.73,1.25,3.12,3.34Z"/>
  </g>
</svg>