<?xml version="1.0" encoding="UTF-8"?>
<svg xmlns="http://www.w3.org/2000/svg" viewBox="0 0 131.1 121.3">
  <defs>
    <style>
      .cls-1, .cls-2 {
        stroke-width: 0px;
      }

      .cls-2 {
        fill: #fff;
      }
    </style>
  </defs>
  <g id="tail">
    <path class="cls-1" d="m84.19,111.81c5.64,4.75,17.35,5.02,23.66,1.42,5.69-3.24,6.99-9.34,6.75-13.38-.6-10.05-9.24-16.56-14.18-11.88-4.01,3.8,1.25,8.81,2.63,12.55,2.17,5.87-2.75,8.96-7.67,9.32-4.03.29-6.91-1.7-9.03-3.96"/>
  </g>
  <g id="body">
    <path class="cls-1" d="m47.52,85.31c0,7.97-8.67,23.17,1.5,31.83,7.14,6.08,34.9,5.67,39.5-2.5,4.28-7.61-2.15-24.7-16-30.33"/>
  </g>
  <g id="ears">
    <path class="cls-1" d="m24.23,38.14S24.88,2.85,34.11.14c7.58-2.22,24.12,21.88,24.12,21.88"/>
    <path class="cls-1" d="m101.19,38.14S100.55,2.85,91.32.14c-7.58-2.22-24.12,21.88-24.12,21.88"/>
  </g>
  <g id="whiskers">
    <path class="cls-1" d="m1.1,71.51c6.36-2.23,13.42-2.82,20.09-2.3,1.16.09,1.15-1.71,0-1.8-6.8-.53-14.09.09-20.57,2.37-1.09.38-.62,2.12.48,1.74h0Z"/>
    <path class="cls-1" d="m9.47,90.6c3.97-5.33,9.42-9.84,15.22-13.01,1.02-.56.11-2.11-.91-1.55-6.09,3.33-11.7,8.07-15.86,13.66-.69.93.87,1.83,1.55.91h0Z"/>
    <path class="cls-1" d="m130.48,63.11c-6.49-2.28-13.77-2.9-20.57-2.37-1.15.09-1.16,1.89,0,1.8,6.68-.52,13.73.07,20.09,2.3,1.1.39,1.57-1.35.48-1.74h0Z"/>
    <path class="cls-1" d="m123.18,83.02c-4.16-5.59-9.78-10.32-15.86-13.66-1.02-.56-1.93,1-.91,1.55,5.8,3.17,11.25,7.68,15.22,13.01.68.92,2.25.02,1.55-.91h0Z"/>
  </g>
  <g id="head">
    <path class="cls-1" d="m112.49,55.59c1.69,21.86-20.4,37.05-47.48,39.14-27.08,2.09-50.75-6.63-52.43-28.49-1.69-21.86,19.24-48.58,46.32-50.67,27.08-2.09,51.91,18.16,53.6,40.02Z"/>
  </g>
  <g id="eyes-white">
    <ellipse class="cls-2" cx="41.99" cy="56.01" rx="15.44" ry="19.56"/>
    <ellipse class="cls-2" cx="88.24" cy="55.22" rx="15.44" ry="19.56"/>
  </g>
  <g id="eyes">
    <path class="cls-1" d="m104.13,61.97c.22,7.13-3.15,13.02-7.52,13.15-4.37.13-8.09-5.54-8.31-12.67-.22-7.13,3.15-13.02,7.52-13.15,4.37-.14,8.09,5.54,8.31,12.67Z"/>
    <path class="cls-2" d="m97.52,54.4c-.08,2.13-1.25,3.81-2.6,3.76-1.36-.05-2.39-1.82-2.31-3.95.08-2.13,1.25-3.81,2.61-3.76,1.36.05,2.39,1.82,2.31,3.95Z"/>
    <path class="cls-1" d="m57.07,63.66c.22,7.13-3.15,13.02-7.52,13.15-4.37.13-8.09-5.54-8.31-12.67-.22-7.13,3.15-13.02,7.52-13.15,4.37-.14,8.09,5.54,8.31,12.67Z"/>
    <path class="cls-2" d="m50.46,56.09c-.08,2.13-1.25,3.81-2.6,3.76-1.36-.05-2.39-1.82-2.31-3.95.08-2.13,1.25-3.81,2.61-3.76,1.36.05,2.39,1.82,2.31,3.95Z"/>
  </g>
</svg>