<?xml version="1.0" encoding="UTF-8"?>
<svg xmlns="http://www.w3.org/2000/svg" viewBox="0 0 132.73 120.26">
  <defs>
    <style>
      .cls-1, .cls-2 {
        stroke-width: 0px;
      }

      .cls-2 {
        fill: #fff;
      }
    </style>
  </defs>
  <g id="tail">
    <path class="cls-1" d="m104.43,97.47c8.28,5.94,19.95,4,24.86-1.35,4.43-4.82,3.82-11.02,2.36-14.79-3.63-9.39-13.84-12.96-17.12-7-2.66,4.84,3.87,8.01,6.33,11.15,3.85,4.93.61,9.16-4.31,9.17-2,0-8.83-.72-11.21-3.81"/>
  </g>
  <g id="legs">
    <path class="cls-1" d="m79.4,115.58c-5.02,8.91-8.38,3.36-8.6-2.24"/>
    <path class="cls-1" d="m67.14,111.18c-6.56,10.85-9.57,3.81-8.4-2.89"/>
    <path class="cls-1" d="m98.13,110.07c9.61,8.27,10.28.65,7.09-5.35"/>
  </g>
  <g id="body">
    <path class="cls-1" d="m47.18,87.99c0,7.97,3.97,17.6,15.83,23.73,12.25,6.33,43.43,6.87,45.29-12.5,1.2-12.47-6.8-20.76-16.78-21.71"/>
  </g>
  <g id="ears">
    <path class="cls-1" d="m18.36,50.02s-6.05-34.78,2.51-39.18c7.03-3.62,27.83,16.91,27.83,16.91"/>
    <path class="cls-1" d="m93.93,35.46S86.62.92,77.04.02c-7.87-.75-19.55,26.05-19.55,26.05"/>
  </g>
  <g id="whiskers">
    <path class="cls-1" d="m1.36,83.08c5.87-3.1,12.74-4.72,19.31-5.18,1.15-.08,1.16-1.88,0-1.8-6.91.48-14.05,2.17-20.22,5.43-1.03.54-.12,2.1.91,1.55h0Z"/>
    <path class="cls-1" d="m12.3,100.89c3.14-5.86,7.81-11.15,13.08-15.15.91-.69.02-2.26-.91-1.55-5.52,4.18-10.44,9.66-13.73,15.8-.55,1.02,1.01,1.93,1.55.91h0Z"/>
    <path class="cls-1" d="m128.13,55.78c-6.86-1.32-14.17-.86-20.93.69-1.13.26-.65,1.99.48,1.74,6.42-1.47,13.46-1.94,19.98-.69,1.13.22,1.62-1.52.48-1.74h0Z"/>
    <path class="cls-1" d="m123.65,76.45c-4.94-4.91-11.23-8.73-17.73-11.13-1.09-.4-1.56,1.34-.48,1.74,6.21,2.29,12.23,5.98,16.94,10.67.82.82,2.1-.45,1.27-1.27h0Z"/>
  </g>
  <g id="head">
    <path class="cls-1" d="m108.33,50.45c5.79,21.15-13.02,40.24-39.22,47.42-26.2,7.18-51.08,3.09-56.88-18.05-5.79-21.14,9.7-51.35,35.9-58.52,26.2-7.18,54.41,8.01,60.2,29.16Z"/>
  </g>
  <g id="eyes-white">
    <path class="cls-2" d="m54.7,59.49c1.59,10.69-3.95,20.37-12.39,21.62-8.43,1.26-16.56-6.39-18.15-17.07-1.59-10.69,3.95-20.37,12.39-21.62,8.43-1.26,16.56,6.39,18.15,17.07Z"/>
    <path class="cls-2" d="m100.33,51.9c1.59,10.69-3.95,20.37-12.39,21.62-8.43,1.26-16.56-6.39-18.15-17.08-1.59-10.69,3.96-20.37,12.39-21.62,8.43-1.26,16.56,6.39,18.15,17.08Z"/>
  </g>
  <g id="eyes">
    <path class="cls-1" d="m86.28,49.41c1.27,7.02-1.19,13.34-5.5,14.12-4.3.78-8.82-4.29-10.08-11.31-1.27-7.02,1.19-13.34,5.5-14.12,4.3-.78,8.82,4.29,10.08,11.3Z"/>
    <path class="cls-2" d="m78.62,42.9c.23,2.12-.67,3.95-2.02,4.1-1.35.15-2.63-1.45-2.86-3.56-.23-2.12.67-3.95,2.02-4.1,1.35-.15,2.63,1.45,2.86,3.56Z"/>
    <path class="cls-1" d="m39.98,58.01c1.27,7.02-1.19,13.34-5.5,14.12-4.3.78-8.82-4.29-10.08-11.31-1.27-7.02,1.19-13.34,5.5-14.12,4.3-.78,8.82,4.29,10.08,11.3Z"/>
    <path class="cls-2" d="m32.32,51.5c.23,2.12-.67,3.95-2.02,4.1-1.35.15-2.63-1.45-2.86-3.56-.23-2.12.67-3.95,2.02-4.1,1.35-.15,2.63,1.45,2.86,3.56Z"/>
  </g>
</svg>